<?xml version="1.0" encoding="UTF-8" standalone="no"?>
<!-- Created with Inkscape (http://www.inkscape.org/) -->

<svg
   xmlns:dc="http://purl.org/dc/elements/1.1/"
   xmlns:cc="http://creativecommons.org/ns#"
   xmlns:rdf="http://www.w3.org/1999/02/22-rdf-syntax-ns#"
   xmlns:svg="http://www.w3.org/2000/svg"
   xmlns="http://www.w3.org/2000/svg"
   xmlns:sodipodi="http://sodipodi.sourceforge.net/DTD/sodipodi-0.dtd"
   xmlns:inkscape="http://www.inkscape.org/namespaces/inkscape"
   width="51.108135mm"
   height="11.649755mm"
   viewBox="0 0 51.108136 11.649755"
   version="1.1"
   id="svg31"
   inkscape:version="0.92.3 (2405546, 2018-03-11)"
   sodipodi:docname="logo.inkscape.svg"
   inkscape:export-filename="/home/sebastian/repo/introkino/logo.png"
   inkscape:export-xdpi="239.8168"
   inkscape:export-ydpi="239.8168">
  <defs
     id="defs25" />
  <sodipodi:namedview
     id="base"
     pagecolor="#ffffff"
     bordercolor="#666666"
     borderopacity="1.0"
     inkscape:pageopacity="0.0"
     inkscape:pageshadow="2"
     inkscape:zoom="5.6"
     inkscape:cx="68.420635"
     inkscape:cy="11.309347"
     inkscape:document-units="mm"
     inkscape:current-layer="layer1"
     showgrid="false"
     fit-margin-top="2"
     fit-margin-left="2"
     fit-margin-right="2"
     fit-margin-bottom="2"
     inkscape:window-width="1920"
     inkscape:window-height="1056"
     inkscape:window-x="0"
     inkscape:window-y="0"
     inkscape:window-maximized="1" />
  <metadata
     id="metadata28">
    <rdf:RDF>
      <cc:Work
         rdf:about="">
        <dc:format>image/svg+xml</dc:format>
        <dc:type
           rdf:resource="http://purl.org/dc/dcmitype/StillImage" />
        <dc:title></dc:title>
      </cc:Work>
    </rdf:RDF>
  </metadata>
  <g
     inkscape:label="Layer 1"
     inkscape:groupmode="layer"
     id="layer1"
     transform="translate(-38.676538,-48.965388)">
    <g
       aria-label="IntroKin"
       transform="scale(0.26458333)"
       style="font-style:normal;font-weight:normal;font-size:40px;line-height:1.25;font-family:sans-serif;letter-spacing:0px;word-spacing:0px;fill:#f9f9f9;fill-opacity:1;stroke:none"
       id="flowRoot33">
      <text
         xml:space="preserve"
         style="font-style:normal;font-weight:normal;font-size:40px;line-height:1.25;font-family:sans-serif;letter-spacing:0px;word-spacing:0px;fill:#f2f2f2;fill-opacity:1;stroke:none"
         x="149.7381"
         y="220.62509"
         id="text27"><tspan
           sodipodi:role="line"
           id="tspan25"
           x="149.7381"
           y="220.62509"
           style="font-style:normal;font-variant:normal;font-weight:normal;font-stretch:normal;font-family:'Quicksand Light';-inkscape-font-specification:'Quicksand Light, ';fill:#f2f2f2">PusteKin</tspan></text>
    </g>
    <path
       inkscape:connector-curvature="0"
       d="m 84.836813,52.719311 c -1.627949,0 -2.947879,1.319942 -2.947879,2.947916 0,1.628332 1.31993,2.947916 2.947879,2.947916 1.627943,0 2.94786,-1.319584 2.94786,-2.947916 0,-1.627974 -1.319917,-2.947916 -2.94786,-2.947916 z m -1.791509,3.633066 c -0.376034,0 -0.681187,-0.305143 -0.681187,-0.681199 0,-0.376404 0.305153,-0.6812 0.681187,-0.6812 0.376403,0 0.681374,0.304796 0.681374,0.6812 0,0.376056 -0.304977,0.681199 -0.681374,0.681199 z m 1.791509,1.808978 c -0.376215,0 -0.681185,-0.304786 -0.681185,-0.681188 0,-0.376045 0.30497,-0.681188 0.681185,-0.681188 0.376223,0 0.681017,0.305143 0.681017,0.681188 -1.4e-5,0.376402 -0.304794,0.681188 -0.681017,0.681188 z m -0.451968,-2.492332 c 0,-0.249752 0.202405,-0.451979 0.451968,-0.451979 0.249545,0 0.45197,0.202239 0.45197,0.451979 0,0.249742 -0.202425,0.451991 -0.45197,0.451991 -0.249563,-1e-5 -0.451968,-0.202249 -0.451968,-0.451991 z m 0.451968,-1.125613 c -0.376215,0 -0.681185,-0.304798 -0.681185,-0.680843 0,-0.376402 0.30497,-0.681199 0.681185,-0.681199 0.376223,0 0.681017,0.304797 0.681017,0.681199 -1.4e-5,0.376045 -0.304794,0.680843 -0.681017,0.680843 z m 1.811103,1.824801 c -0.376034,0 -0.681192,-0.304786 -0.681192,-0.680843 0,-0.376403 0.305158,-0.681199 0.681192,-0.681199 0.376228,0 0.681009,0.304796 0.681009,0.681199 0,0.376057 -0.304781,0.680843 -0.681009,0.680843 z"
       id="path2"
       style="fill:#f2f2f2;stroke-width:0.0115157" />
  </g>
</svg>
