<?xml version="1.0" encoding="UTF-8" standalone="no"?>
<!-- Created with Inkscape (http://www.inkscape.org/) -->

<svg
   xmlns:dc="http://purl.org/dc/elements/1.1/"
   xmlns:cc="http://creativecommons.org/ns#"
   xmlns:rdf="http://www.w3.org/1999/02/22-rdf-syntax-ns#"
   xmlns:svg="http://www.w3.org/2000/svg"
   xmlns="http://www.w3.org/2000/svg"
   xmlns:sodipodi="http://sodipodi.sourceforge.net/DTD/sodipodi-0.dtd"
   xmlns:inkscape="http://www.inkscape.org/namespaces/inkscape"
   width="56.220692mm"
   height="11.967255mm"
   viewBox="0 0 56.220692 11.967255"
   version="1.1"
   id="svg31"
   inkscape:version="0.92.3 (2405546, 2018-03-11)"
   sodipodi:docname="logo.svg"
   inkscape:export-filename="/home/sebastian/repo/introkino/logo.png"
   inkscape:export-xdpi="239.8168"
   inkscape:export-ydpi="239.8168">
  <defs
     id="defs25" />
  <sodipodi:namedview
     id="base"
     pagecolor="#ffffff"
     bordercolor="#666666"
     borderopacity="1.0"
     inkscape:pageopacity="0.0"
     inkscape:pageshadow="2"
     inkscape:zoom="3.959798"
     inkscape:cx="131.84496"
     inkscape:cy="-3.4149643"
     inkscape:document-units="mm"
     inkscape:current-layer="layer1"
     showgrid="false"
     fit-margin-top="2"
     fit-margin-left="2"
     fit-margin-right="2"
     fit-margin-bottom="2"
     inkscape:window-width="1920"
     inkscape:window-height="1056"
     inkscape:window-x="0"
     inkscape:window-y="0"
     inkscape:window-maximized="1" />
  <metadata
     id="metadata28">
    <rdf:RDF>
      <cc:Work
         rdf:about="">
        <dc:format>image/svg+xml</dc:format>
        <dc:type
           rdf:resource="http://purl.org/dc/dcmitype/StillImage" />
        <dc:title></dc:title>
      </cc:Work>
    </rdf:RDF>
  </metadata>
  <g
     inkscape:label="Layer 1"
     inkscape:groupmode="layer"
     id="layer1"
     transform="translate(-38.909371,-48.647888)">
    <g
       id="text27"
       style="font-style:normal;font-weight:normal;font-size:40px;line-height:1.25;font-family:sans-serif;letter-spacing:0px;word-spacing:0px;fill:#f2f2f2;fill-opacity:1;stroke:none"
       aria-label="PusteKin"
       transform="scale(0.26458333)">
      <path
         inkscape:connector-curvature="0"
         id="path29"
         style="font-style:normal;font-variant:normal;font-weight:300;font-stretch:normal;font-family:Montserrat;-inkscape-font-specification:'Montserrat Light';fill:#f2f2f2"
         d="m 164.6581,192.62509 q 5.28,0 8.28,2.52 3,2.48 3,6.92 0,4.4 -3,6.92 -3,2.48 -8.28,2.48 h -8 v 9.16 h -2.04 v -28 z m 0,17 q 4.48,0 6.84,-1.96 2.36,-1.96 2.36,-5.6 0,-3.64 -2.36,-5.6 -2.36,-2 -6.84,-2 h -8 v 15.16 z" />
      <path
         inkscape:connector-curvature="0"
         id="path31"
         style="font-style:normal;font-variant:normal;font-weight:300;font-stretch:normal;font-family:Montserrat;-inkscape-font-specification:'Montserrat Light';fill:#f2f2f2"
         d="m 200.85185,199.74509 v 20.88 h -1.92 v -4.48 q -1.04,2.2 -3.08,3.44 -2.04,1.2 -4.8,1.2 -4.08,0 -6.4,-2.28 -2.32,-2.28 -2.32,-6.56 v -12.2 h 2 v 12.04 q 0,3.52 1.8,5.36 1.8,1.84 5.08,1.84 3.52,0 5.56,-2.2 2.08,-2.2 2.08,-5.92 v -11.12 z" />
      <path
         inkscape:connector-curvature="0"
         id="path33"
         style="font-style:normal;font-variant:normal;font-weight:300;font-stretch:normal;font-family:Montserrat;-inkscape-font-specification:'Montserrat Light';fill:#f2f2f2"
         d="m 214.64872,220.78509 q -2.52,0 -4.8,-0.76 -2.28,-0.76 -3.56,-1.92 l 0.92,-1.6 q 1.28,1.08 3.28,1.8 2.04,0.72 4.24,0.72 3.16,0 4.64,-1.04 1.52,-1.04 1.52,-2.88 0,-1.32 -0.84,-2.08 -0.8,-0.76 -2,-1.12 -1.2,-0.36 -3.32,-0.76 -2.48,-0.44 -4,-0.96 -1.52,-0.52 -2.6,-1.68 -1.08,-1.16 -1.08,-3.2 0,-2.48 2.04,-4.08 2.08,-1.64 5.88,-1.64 2,0 3.96,0.56 1.96,0.56 3.2,1.48 l -0.92,1.6 q -1.28,-0.92 -2.92,-1.4 -1.64,-0.48 -3.36,-0.48 -2.92,0 -4.4,1.08 -1.48,1.08 -1.48,2.84 0,1.4 0.84,2.2 0.84,0.76 2.04,1.16 1.24,0.36 3.44,0.8 2.44,0.44 3.92,0.96 1.52,0.48 2.56,1.6 1.04,1.12 1.04,3.08 0,2.6 -2.16,4.16 -2.16,1.56 -6.08,1.56 z" />
      <path
         inkscape:connector-curvature="0"
         id="path35"
         style="font-style:normal;font-variant:normal;font-weight:300;font-stretch:normal;font-family:Montserrat;-inkscape-font-specification:'Montserrat Light';fill:#f2f2f2"
         d="m 238.86935,219.30509 q -0.76,0.72 -1.92,1.12 -1.12,0.36 -2.36,0.36 -2.72,0 -4.2,-1.48 -1.48,-1.52 -1.48,-4.2 v -13.64 h -3.84 v -1.72 h 3.84 v -4.56 h 2 v 4.56 h 6.64 v 1.72 h -6.64 v 13.44 q 0,2.04 0.96,3.12 1,1.04 2.92,1.04 1.96,0 3.24,-1.16 z" />
      <path
         inkscape:connector-curvature="0"
         id="path37"
         style="font-style:normal;font-variant:normal;font-weight:300;font-stretch:normal;font-family:Montserrat;-inkscape-font-specification:'Montserrat Light';fill:#f2f2f2"
         d="m 261.3056,210.66509 h -17.96 q 0.08,2.44 1.24,4.36 1.16,1.88 3.12,2.92 2,1.04 4.48,1.04 2.04,0 3.76,-0.72 1.76,-0.76 2.92,-2.2 l 1.16,1.32 q -1.36,1.64 -3.44,2.52 -2.04,0.88 -4.44,0.88 -3.12,0 -5.56,-1.36 -2.44,-1.36 -3.84,-3.76 -1.36,-2.4 -1.36,-5.48 0,-3.04 1.28,-5.44 1.32,-2.44 3.6,-3.8 2.28,-1.36 5.12,-1.36 2.84,0 5.08,1.36 2.28,1.32 3.56,3.72 1.32,2.4 1.32,5.44 z m -9.92,-9.32 q -2.2,0 -3.96,1 -1.76,0.96 -2.84,2.76 -1.04,1.76 -1.2,4 h 16 q -0.12,-2.24 -1.2,-4 -1.08,-1.76 -2.84,-2.76 -1.76,-1 -3.96,-1 z" />
      <path
         inkscape:connector-curvature="0"
         id="path39"
         style="font-style:normal;font-variant:normal;font-weight:300;font-stretch:normal;font-family:Montserrat;-inkscape-font-specification:'Montserrat Light';fill:#f2f2f2"
         d="m 276.53185,206.82509 -6.28,6.44 v 7.36 h -2.04 v -28 h 2.04 v 18 l 17.48,-18 h 2.48 l -12.32,12.72 13.16,15.28 h -2.48 z" />
      <path
         inkscape:connector-curvature="0"
         id="path41"
         style="font-style:normal;font-variant:normal;font-weight:300;font-stretch:normal;font-family:Montserrat;-inkscape-font-specification:'Montserrat Light';fill:#f2f2f2"
         d="m 295.30622,199.74509 h 2 v 20.88 h -2 z m 1,-5.08 q -0.68,0 -1.16,-0.44 -0.48,-0.48 -0.48,-1.16 0,-0.68 0.48,-1.16 0.48,-0.48 1.16,-0.48 0.68,0 1.16,0.48 0.48,0.44 0.48,1.12 0,0.68 -0.48,1.16 -0.48,0.48 -1.16,0.48 z" />
      <path
         inkscape:connector-curvature="0"
         id="path43"
         style="font-style:normal;font-variant:normal;font-weight:300;font-stretch:normal;font-family:Montserrat;-inkscape-font-specification:'Montserrat Light';fill:#f2f2f2"
         d="m 315.97497,199.58509 q 3.92,0 6.2,2.28 2.28,2.28 2.28,6.56 v 12.2 h -2 v -12.04 q 0,-3.52 -1.8,-5.36 -1.76,-1.84 -4.96,-1.84 -3.68,0 -5.8,2.2 -2.12,2.2 -2.12,5.92 v 11.12 h -2 v -20.88 h 1.92 v 4.52 q 1.08,-2.2 3.2,-3.44 2.16,-1.24 5.08,-1.24 z" />
    </g>
    <path
       inkscape:connector-curvature="0"
       d="m 90.315839,52.452037 c -1.701748,0 -3.081514,1.379779 -3.081514,3.081553 0,1.702149 1.379766,3.081553 3.081514,3.081553 1.701742,0 3.081495,-1.379404 3.081495,-3.081553 0,-1.701774 -1.379753,-3.081553 -3.081495,-3.081553 z M 88.443116,56.2498 c -0.39308,0 -0.712067,-0.318976 -0.712067,-0.71208 0,-0.393467 0.318987,-0.71208 0.712067,-0.71208 0.393467,0 0.712263,0.318613 0.712263,0.71208 0,0.393104 -0.318803,0.71208 -0.712263,0.71208 z m 1.872723,1.890984 c -0.39327,0 -0.712065,-0.318603 -0.712065,-0.712068 0,-0.393093 0.318795,-0.712069 0.712065,-0.712069 0.393278,0 0.71189,0.318976 0.71189,0.712069 -1.5e-5,0.393465 -0.318612,0.712068 -0.71189,0.712068 z m -0.472457,-2.605316 c 0,-0.261074 0.211581,-0.472469 0.472457,-0.472469 0.260858,0 0.472459,0.211407 0.472459,0.472469 0,0.261063 -0.211601,0.472481 -0.472459,0.472481 -0.260876,-1.1e-5 -0.472457,-0.211418 -0.472457,-0.472481 z m 0.472457,-1.17664 c -0.39327,0 -0.712065,-0.318616 -0.712065,-0.711708 0,-0.393465 0.318795,-0.712079 0.712065,-0.712079 0.393278,0 0.71189,0.318614 0.71189,0.712079 -1.5e-5,0.393092 -0.318612,0.711708 -0.71189,0.711708 z m 1.893205,1.907524 c -0.39308,0 -0.712072,-0.318603 -0.712072,-0.711708 0,-0.393466 0.318992,-0.712079 0.712072,-0.712079 0.393284,0 0.711881,0.318613 0.711881,0.712079 0,0.393105 -0.318597,0.711708 -0.711881,0.711708 z"
       id="path2"
       style="fill:#f2f2f2;stroke-width:0.01203774" />
  </g>
</svg>
