<svg width="51.108mm" height="11.65mm" version="1.1" viewBox="0 0 51.108 11.65" xmlns="http://www.w3.org/2000/svg">
 <g transform="translate(-38.677 -48.965)" fill="#f2f2f2">
  <g transform="scale(.26458)" aria-label="PusteKin">
   <path d="m164.14 192.63q3.4 0 5.48 2.12t2.08 5.52q0 2.24-0.96 4.08-0.92 1.8-2.64 2.84-1.72 1-3.96 1h-8.72v11.64q0 0.32-0.28 0.56-0.24 0.24-0.56 0.24-0.36 0-0.6-0.24t-0.24-0.56v-26.4q0-0.32 0.24-0.56t0.56-0.24zm0 13.96q2.68 0 4.28-1.76 1.6-1.8 1.6-4.56t-1.6-4.4q-1.56-1.64-4.28-1.64h-8.72v12.36z"/>
   <path d="m191.65 200.67q0.36 0 0.56 0.24 0.24 0.24 0.24 0.56v11.64q0 3.8-2.16 5.8-2.12 1.96-5.8 1.96t-5.8-1.96q-2.12-2-2.12-5.8v-11.64q0-0.32 0.24-0.56t0.56-0.24q0.36 0 0.56 0.24 0.24 0.24 0.24 0.56v11.64q0 3 1.68 4.64 1.68 1.6 4.64 1.6 3 0 4.68-1.6 1.68-1.64 1.68-4.64v-11.64q0-0.32 0.2-0.56 0.24-0.24 0.6-0.24z"/>
   <path d="m197.95 217.43q-0.28-0.44-0.28-0.76 0-0.28 0.32-0.52 0.2-0.2 0.48-0.2 0.4 0 0.64 0.32 2.32 3.32 6.48 3.32 2.12 0 3.72-1.04 1.6-1.08 1.6-2.88 0-1.84-1.4-2.76t-3.84-1.52q-3.24-0.8-5.12-2.12-1.84-1.36-1.84-3.8 0-2.36 1.88-3.88 1.88-1.56 4.84-1.56 1.64 0 3.24 0.64 1.64 0.64 2.96 2.04 0.28 0.24 0.28 0.56 0 0.36-0.28 0.64-0.32 0.16-0.52 0.16-0.28 0-0.48-0.24-2.08-2.28-5.36-2.28-2.12 0-3.6 1.04-1.44 1.04-1.44 2.88 0.12 1.72 1.56 2.68 1.48 0.92 4.32 1.64 2.04 0.52 3.36 1.16 1.36 0.6 2.16 1.72t0.8 2.92q0 2.52-1.96 4-1.92 1.44-5.04 1.44-4.56 0-7.48-3.6z"/>
   <path d="m225.11 200.51q0.28 0 0.52 0.24t0.24 0.52q0 0.32-0.24 0.56-0.2 0.2-0.52 0.2h-4.4v14.24q0 1.76 0.6 2.36 0.64 0.56 1.6 0.56 0.16 0 0.44-0.08 0.32-0.08 0.52-0.08 0.28 0 0.48 0.24 0.2 0.2 0.2 0.48 0 0.36-0.48 0.64-0.48 0.24-1.12 0.24-1 0-1.68-0.12-0.68-0.16-1.44-1.08-0.72-0.96-0.72-3.08v-14.32h-3.28q-0.28 0-0.52-0.24t-0.24-0.52q0-0.32 0.2-0.52 0.24-0.24 0.56-0.24h3.28v-5.08q0-0.32 0.24-0.56t0.56-0.24q0.36 0 0.56 0.24 0.24 0.24 0.24 0.56v5.08z"/>
   <path d="m245.89 215.83q0.28 0 0.48 0.24 0.2 0.2 0.2 0.48t-0.16 0.48q-1.32 1.76-3.28 2.88t-4.2 1.12q-3 0-5.32-1.28t-3.64-3.64q-1.28-2.36-1.28-5.48 0-3.2 1.24-5.6 1.28-2.44 3.36-3.72t4.44-1.28 4.36 1.04q2.04 1 3.32 3.04t1.36 5.04q0 0.32-0.24 0.6-0.24 0.24-0.56 0.24h-15.72v0.52q0 2.48 1 4.56 1 2.04 2.96 3.24t4.72 1.2q1.92 0 3.6-0.92 1.72-0.96 2.68-2.4 0.28-0.36 0.68-0.36zm-8.16-14.2q-1.48 0-3.04 0.8-1.52 0.76-2.72 2.32-1.16 1.52-1.56 3.72h14.72v-0.36q-0.2-2.04-1.32-3.48-1.08-1.48-2.72-2.24-1.6-0.76-3.36-0.76z"/>
   <path d="m273.68 219.43q0.2 0.28 0.2 0.56 0 0.44-0.32 0.64-0.28 0.2-0.6 0.2t-0.56-0.28l-12-14.84-6 5.56v8.52q-0.04 0.36-0.28 0.6t-0.56 0.24q-0.4 0-0.64-0.24-0.2-0.24-0.2-0.6v-26.32q0-0.36 0.24-0.6t0.6-0.24 0.6 0.24 0.24 0.6v15.76l17.28-16.2q0.24-0.24 0.56-0.24t0.56 0.24 0.24 0.56-0.24 0.56l-11.08 10.32z"/>
   <path d="m280.91 219.83q0 0.32-0.24 0.56t-0.56 0.24q-0.36 0-0.6-0.24-0.2-0.24-0.2-0.56v-19q0-0.32 0.24-0.56t0.56-0.24q0.36 0 0.56 0.24 0.24 0.24 0.24 0.56zm-0.8-22.52q-0.64 0-1.04-0.36-0.36-0.36-0.36-0.92v-0.32q0-0.56 0.4-0.92t1.04-0.36q0.56 0 0.92 0.36 0.4 0.36 0.4 0.92v0.32q0 0.56-0.4 0.92-0.36 0.36-0.96 0.36z"/>
   <path d="m296.59 200.03q3.56 0 5.36 2.12 1.8 2.08 1.8 5.44v12.24q0 0.32-0.24 0.56t-0.56 0.24q-0.36 0-0.6-0.24-0.2-0.24-0.2-0.56v-12.08q0-2.72-1.44-4.44-1.4-1.76-4.28-1.76-1.76 0-3.48 0.84-1.68 0.84-2.76 2.28t-1.08 3.08v12.08q0 0.32-0.24 0.56t-0.56 0.24q-0.36 0-0.6-0.24-0.2-0.24-0.2-0.56v-18.36q0-0.32 0.24-0.56t0.56-0.24q0.36 0 0.56 0.24 0.24 0.24 0.24 0.56v2.68q1.16-1.8 3.24-2.96 2.12-1.16 4.24-1.16z"/>
  </g>
  <path d="m84.837 52.719c-1.6279 0-2.9479 1.3199-2.9479 2.9479 0 1.6283 1.3199 2.9479 2.9479 2.9479 1.6279 0 2.9479-1.3196 2.9479-2.9479 0-1.628-1.3199-2.9479-2.9479-2.9479zm-1.7915 3.6331c-0.37603 0-0.68119-0.30514-0.68119-0.6812 0-0.3764 0.30515-0.6812 0.68119-0.6812 0.3764 0 0.68137 0.3048 0.68137 0.6812 0 0.37606-0.30498 0.6812-0.68137 0.6812zm1.7915 1.809c-0.37622 0-0.68118-0.30479-0.68118-0.68119 0-0.37604 0.30497-0.68119 0.68118-0.68119 0.37622 0 0.68102 0.30514 0.68102 0.68119-1.4e-5 0.3764-0.30479 0.68119-0.68102 0.68119zm-0.45197-2.4923c0-0.24975 0.2024-0.45198 0.45197-0.45198 0.24954 0 0.45197 0.20224 0.45197 0.45198 0 0.24974-0.20242 0.45199-0.45197 0.45199-0.24956-1e-5 -0.45197-0.20225-0.45197-0.45199zm0.45197-1.1256c-0.37622 0-0.68118-0.3048-0.68118-0.68084 0-0.3764 0.30497-0.6812 0.68118-0.6812 0.37622 0 0.68102 0.3048 0.68102 0.6812-1.4e-5 0.37604-0.30479 0.68084-0.68102 0.68084zm1.8111 1.8248c-0.37603 0-0.68119-0.30479-0.68119-0.68084 0-0.3764 0.30516-0.6812 0.68119-0.6812 0.37623 0 0.68101 0.3048 0.68101 0.6812 0 0.37606-0.30478 0.68084-0.68101 0.68084z" stroke-width=".011516"/>
 </g>
</svg>
