<svg width="18" height="18" version="1.1" viewBox="0 0 4.7625 4.7625" xmlns="http://www.w3.org/2000/svg">
 <g transform="translate(-44.502 -45.177)">
  <circle cx="46.884" cy="47.559" r="2.3812" fill="#a73f73" fill-opacity=".99029" stroke-width=".023812"/>
  <path transform="matrix(-.00072071 -.075206 .078454 -.00075504 43.246 51.08)" d="m53.851 57.142c-0.88879 0.66523-6.1173 17.017-7.2274 17.033s-6.8008-16.181-7.7081-16.821c-0.90732-0.63972-18.075-0.55932-18.433-1.6102-0.35802-1.0509 13.288-11.468 13.616-12.529 0.32803-1.0606-5.0534-17.363-4.1646-18.028s15.013 9.0934 16.123 9.0776c1.1101-0.01576 14.951-10.171 15.859-9.5318 0.90732 0.63972-4.009 17.088-3.651 18.139 0.35802 1.0509 14.294 11.076 13.966 12.137-0.32803 1.0606-17.491 1.4677-18.379 2.1329z" fill="#f4ef5e" fill-opacity=".99029" stroke-width=".26458"/>
 </g>
</svg>
